<svg width="172" height="20" viewBox="0 0 172 20" fill="none" xmlns="http://www.w3.org/2000/svg">
<path d="M16.2866 3.13024C16.5966 2.1578 17.9726 2.15779 18.2827 3.13024L20.8809 11.2793C21.0201 11.7157 21.4267 12.0111 21.8847 12.0086L30.4378 11.9615C31.4585 11.9559 31.8837 13.2645 31.0547 13.8599L24.1074 18.8491C23.7353 19.1164 23.58 19.5943 23.7239 20.0292L26.4118 28.1491C26.7325 29.1181 25.6193 29.9269 24.7969 29.3224L17.905 24.2569C17.5359 23.9856 17.0333 23.9856 16.6642 24.2569L9.77232 29.3224C8.9499 29.9269 7.8367 29.1181 8.15744 28.1491L10.8453 20.0292C10.9892 19.5943 10.8339 19.1164 10.4619 18.8491L3.51459 13.8599C2.68555 13.2645 3.11075 11.9559 4.13142 11.9615L12.6845 12.0086C13.1426 12.0111 13.5492 11.7157 13.6883 11.2793L16.2866 3.13024Z" fill="#FFEB3A"/>
<path d="M50.8559 3.13024C51.166 2.1578 52.542 2.15779 52.852 3.13024L55.4503 11.2793C55.5894 11.7157 55.996 12.0111 56.4541 12.0086L65.0072 11.9615C66.0278 11.9559 66.453 13.2645 65.624 13.8599L58.6767 18.8491C58.3046 19.1164 58.1493 19.5943 58.2933 20.0292L60.9811 28.1491C61.3019 29.1181 60.1887 29.9269 59.3663 29.3224L52.4744 24.2569C52.1052 23.9856 51.6027 23.9856 51.2336 24.2569L44.3417 29.3224C43.5192 29.9269 42.406 29.1181 42.7268 28.1491L45.4146 20.0292C45.5586 19.5943 45.4033 19.1164 45.0312 18.8491L38.0839 13.8599C37.2549 13.2645 37.6801 11.9559 38.7008 11.9615L47.2538 12.0086C47.7119 12.0111 48.1185 11.7157 48.2577 11.2793L50.8559 3.13024Z" fill="#FFEB3A"/>
<path d="M85.4252 3.13024C85.7353 2.1578 87.1113 2.15779 87.4213 3.13024L90.0196 11.2793C90.1587 11.7157 90.5653 12.0111 91.0234 12.0086L99.5765 11.9615C100.597 11.9559 101.022 13.2645 100.193 13.8599L93.246 18.8491C92.874 19.1164 92.7187 19.5943 92.8626 20.0292L95.5505 28.1491C95.8712 29.1181 94.758 29.9269 93.9356 29.3224L87.0437 24.2569C86.6746 23.9856 86.172 23.9856 85.8029 24.2569L78.911 29.3224C78.0886 29.9269 76.9754 29.1181 77.2961 28.1491L79.984 20.0292C80.1279 19.5943 79.9726 19.1164 79.6005 18.8491L72.6533 13.8599C71.8242 13.2645 72.2494 11.9559 73.2701 11.9615L81.8232 12.0086C82.2813 12.0111 82.6878 11.7157 82.827 11.2793L85.4252 3.13024Z" fill="#FFEB3A"/>
<path d="M119.995 3.13024C120.305 2.1578 121.681 2.15779 121.991 3.13024L124.589 11.2793C124.728 11.7157 125.135 12.0111 125.593 12.0086L134.146 11.9615C135.166 11.9559 135.592 13.2645 134.763 13.8599L127.815 18.8491C127.443 19.1164 127.288 19.5943 127.432 20.0292L130.12 28.1491C130.441 29.1181 129.327 29.9269 128.505 29.3224L121.613 24.2569C121.244 23.9856 120.741 23.9856 120.372 24.2569L113.48 29.3224C112.658 29.9269 111.545 29.1181 111.865 28.1491L114.553 20.0292C114.697 19.5943 114.542 19.1164 114.17 18.8491L107.223 13.8599C106.394 13.2645 106.819 11.9559 107.839 11.9615L116.393 12.0086C116.851 12.0111 117.257 11.7157 117.396 11.2793L119.995 3.13024Z" fill="#FFEB3A"/>
<path d="M159.158 11.2793L156.56 3.13024C156.25 2.15779 154.874 2.1578 154.564 3.13024L151.965 11.2793C151.826 11.7157 151.42 12.0111 150.962 12.0086L142.408 11.9615C141.388 11.9559 140.963 13.2645 141.792 13.8599L148.739 18.8491C149.111 19.1164 149.266 19.5943 149.122 20.0292L146.435 28.1491C146.114 29.1181 147.227 29.9269 148.049 29.3224L154.941 24.2569C155.31 23.9856 155.813 23.9856 156.182 24.2569L159.392 26.6161L163.074 29.3224C163.896 29.9269 165.01 29.1181 164.689 28.1491L162.001 20.0292C161.857 19.5943 162.012 19.1164 162.384 18.8491L169.332 13.8599C170.161 13.2645 169.736 11.9559 168.715 11.9615L160.162 12.0086C159.704 12.0111 159.297 11.7157 159.158 11.2793Z" fill="#FFEB3A"/>
</svg>
