<svg width="284" height="57" viewBox="0 0 284 57" fill="none" xmlns="http://www.w3.org/2000/svg">
<path d="M26.8544 5.16134C27.3656 3.55791 29.6344 3.55791 30.1456 5.16134L34.4298 18.598C34.6593 19.3176 35.3297 19.8047 36.085 19.8005L50.1879 19.7229C51.8708 19.7136 52.5719 21.8714 51.2049 22.8531L39.7498 31.0797C39.1363 31.5203 38.8802 32.3084 39.1176 33.0254L43.5495 46.4141C44.0783 48.0118 42.2428 49.3454 40.8868 48.3487L29.5229 39.9964C28.9143 39.549 28.0857 39.549 27.4771 39.9964L16.1132 48.3487C14.7572 49.3454 12.9217 48.0118 13.4505 46.4141L17.8824 33.0254C18.1198 32.3084 17.8637 31.5203 17.2502 31.0797L5.79508 22.8531C4.42811 21.8714 5.12921 19.7136 6.81215 19.7229L20.915 19.8005C21.6703 19.8047 22.3407 19.3176 22.5702 18.598L26.8544 5.16134Z" fill="#FFEB3A"/>
<path d="M83.8544 5.16134C84.3656 3.55791 86.6344 3.55791 87.1456 5.16134L91.4298 18.598C91.6593 19.3176 92.3297 19.8047 93.085 19.8005L107.188 19.7229C108.871 19.7136 109.572 21.8714 108.205 22.8531L96.7498 31.0797C96.1363 31.5203 95.8802 32.3084 96.1176 33.0254L100.549 46.4141C101.078 48.0118 99.2428 49.3454 97.8868 48.3487L86.5229 39.9964C85.9143 39.549 85.0857 39.549 84.4771 39.9964L73.1132 48.3487C71.7572 49.3454 69.9217 48.0118 70.4505 46.4141L74.8824 33.0254C75.1198 32.3084 74.8637 31.5203 74.2502 31.0797L62.7951 22.8531C61.4281 21.8714 62.1292 19.7136 63.8121 19.7229L77.915 19.8005C78.6703 19.8047 79.3407 19.3176 79.5702 18.598L83.8544 5.16134Z" fill="#FFEB3A"/>
<path d="M140.854 5.16134C141.366 3.55791 143.634 3.55791 144.146 5.16134L148.43 18.598C148.659 19.3176 149.33 19.8047 150.085 19.8005L164.188 19.7229C165.871 19.7136 166.572 21.8714 165.205 22.8531L153.75 31.0797C153.136 31.5203 152.88 32.3084 153.118 33.0254L157.549 46.4141C158.078 48.0118 156.243 49.3454 154.887 48.3487L143.523 39.9964C142.914 39.549 142.086 39.549 141.477 39.9964L130.113 48.3487C128.757 49.3454 126.922 48.0118 127.451 46.4141L131.882 33.0254C132.12 32.3084 131.864 31.5203 131.25 31.0797L119.795 22.8531C118.428 21.8714 119.129 19.7136 120.812 19.7229L134.915 19.8005C135.67 19.8047 136.341 19.3176 136.57 18.598L140.854 5.16134Z" fill="#FFEB3A"/>
<path d="M197.854 5.16134C198.366 3.55791 200.634 3.55791 201.146 5.16134L205.43 18.598C205.659 19.3176 206.33 19.8047 207.085 19.8005L221.188 19.7229C222.871 19.7136 223.572 21.8714 222.205 22.8531L210.75 31.0797C210.136 31.5203 209.88 32.3084 210.118 33.0254L214.549 46.4141C215.078 48.0118 213.243 49.3454 211.887 48.3487L200.523 39.9964C199.914 39.549 199.086 39.549 198.477 39.9964L187.113 48.3487C185.757 49.3454 183.922 48.0118 184.451 46.4141L188.882 33.0254C189.12 32.3084 188.864 31.5203 188.25 31.0797L176.795 22.8531C175.428 21.8714 176.129 19.7136 177.812 19.7229L191.915 19.8005C192.67 19.8047 193.341 19.3176 193.57 18.598L197.854 5.16134Z" fill="#FFEB3A"/>
<path d="M262.429 18.598L258.145 5.16134C257.634 3.55791 255.365 3.55791 254.854 5.16134L250.57 18.598C250.34 19.3176 249.67 19.8047 248.915 19.8005L234.812 19.7229C233.129 19.7136 232.428 21.8714 233.795 22.8531L245.25 31.0797C245.863 31.5203 246.119 32.3084 245.882 33.0254L241.45 46.4141C240.921 48.0118 242.757 49.3454 244.113 48.3487L255.477 39.9964C256.085 39.549 256.914 39.549 257.523 39.9964L262.815 43.8863L268.886 48.3487C270.242 49.3454 272.078 48.0118 271.549 46.4141L267.117 33.0254C266.88 32.3084 267.136 31.5203 267.749 31.0797L279.205 22.8531C280.572 21.8714 279.87 19.7136 278.187 19.7229L264.085 19.8005C263.329 19.8047 262.659 19.3176 262.429 18.598Z" fill="#F6F3E4"/>
<path d="M262.733 19.5515L258.145 5.16134C257.634 3.55791 255.365 3.55791 254.854 5.16134L250.57 18.598C250.34 19.3176 249.67 19.8047 248.915 19.8005L234.812 19.7229C233.129 19.7136 232.428 21.8714 233.795 22.8531L245.25 31.0797C245.863 31.5203 246.119 32.3084 245.882 33.0254L241.45 46.4141C240.921 48.0118 242.757 49.3454 244.113 48.3487L255.477 39.9964C256.085 39.549 256.914 39.549 257.523 39.9964L262.815 43.8863V20.0762C262.815 19.8982 262.788 19.7212 262.733 19.5515Z" fill="#FFEB3A"/>
</svg>
