<svg width="36" height="36" viewBox="0 0 36 36" fill="none" xmlns="http://www.w3.org/2000/svg">
<path d="M26.1562 11.25V10.4062C26.1546 8.27853 25.3225 6.23549 23.837 4.71211C22.3516 3.18873 20.3302 2.30533 18.2032 2.25H17.7968C15.6698 2.30533 13.6484 3.18873 12.163 4.71211C10.6775 6.23549 9.84541 8.27853 9.84375 10.4062V11.25H3.65625C3.58166 11.25 3.51012 11.2796 3.45738 11.3324C3.40463 11.3851 3.375 11.4567 3.375 11.5312V32.625C3.375 32.9234 3.49353 33.2095 3.7045 33.4205C3.91548 33.6315 4.20163 33.75 4.5 33.75H31.5C31.7984 33.75 32.0845 33.6315 32.2955 33.4205C32.5065 33.2095 32.625 32.9234 32.625 32.625V11.5312C32.625 11.4567 32.5954 11.3851 32.5426 11.3324C32.4899 11.2796 32.4183 11.25 32.3438 11.25H26.1562ZM23.3438 11.25H12.6562V10.4766C12.6562 7.53469 15.0054 5.09344 17.9473 5.0625C18.6532 5.05628 19.3535 5.18987 20.0076 5.45557C20.6616 5.72126 21.2567 6.1138 21.7583 6.61056C22.26 7.10732 22.6584 7.69847 22.9305 8.34992C23.2026 9.00138 23.343 9.70025 23.3438 10.4062V11.25Z" fill="white"/>
</svg>
