<svg width="84" height="77" viewBox="0 0 84 77" fill="none" xmlns="http://www.w3.org/2000/svg">
<path d="M26.2497 8.75H43.7497L49.583 14.5833H61.2497C62.0232 14.5833 62.7651 14.8906 63.3121 15.4376C63.8591 15.9846 64.1663 16.7265 64.1663 17.5V58.3333C64.1663 59.1069 63.8591 59.8488 63.3121 60.3957C62.7651 60.9427 62.0232 61.25 61.2497 61.25H8.74967C7.97613 61.25 7.23426 60.9427 6.68728 60.3957C6.1403 59.8488 5.83301 59.1069 5.83301 58.3333V17.5C5.83301 16.7265 6.1403 15.9846 6.68728 15.4376C7.23426 14.8906 7.97613 14.5833 8.74967 14.5833H20.4163L26.2497 8.75ZM34.9997 55.4167C39.641 55.4167 44.0922 53.5729 47.374 50.291C50.6559 47.0092 52.4997 42.558 52.4997 37.9167C52.4997 33.2754 50.6559 28.8242 47.374 25.5423C44.0922 22.2604 39.641 20.4167 34.9997 20.4167C30.3584 20.4167 25.9072 22.2604 22.6253 25.5423C19.3434 28.8242 17.4997 33.2754 17.4997 37.9167C17.4997 42.558 19.3434 47.0092 22.6253 50.291C25.9072 53.5729 30.3584 55.4167 34.9997 55.4167ZM34.9997 49.5833C31.9055 49.5833 28.938 48.3542 26.7501 46.1662C24.5622 43.9783 23.333 41.0109 23.333 37.9167C23.333 34.8225 24.5622 31.855 26.7501 29.6671C28.938 27.4792 31.9055 26.25 34.9997 26.25C38.0939 26.25 41.0613 27.4792 43.2493 29.6671C45.4372 31.855 46.6663 34.8225 46.6663 37.9167C46.6663 41.0109 45.4372 43.9783 43.2493 46.1662C41.0613 48.3542 38.0939 49.5833 34.9997 49.5833Z" fill="#6A38F3"/>
<circle cx="64.5" cy="57.5" r="19.5" fill="white"/>
<path d="M54 57.5H74.5" stroke="#6A38F3" stroke-width="2"/>
<path d="M64.5 47V67.5" stroke="#6A38F3" stroke-width="2"/>
</svg>
