  <svg
    width="138"
    height="132"
    viewBox="0 0 138 132"
    fill="none"
    xmlns="http://www.w3.org/2000/svg"
    className={className}
  >
    <path
      d="M64.2949 3.67493C65.6449 -0.558241 71.6343 -0.55824 72.9844 3.67493L85.5361 43.0421C86.2748 45.3588 88.4337 46.9266 90.8652 46.9132L132.184 46.6857C136.627 46.6612 138.478 52.3593 134.869 54.9513L101.308 79.0538C99.3329 80.4723 98.5084 83.0092 99.2725 85.3175L112.257 124.544C113.653 128.762 108.807 132.283 105.227 129.651L71.9326 105.181C69.9734 103.741 67.3059 103.741 65.3467 105.181L32.0527 129.651C28.4723 132.283 23.6262 128.762 25.0225 124.544L38.0068 85.3175C38.7709 83.0093 37.9464 80.4723 35.9717 79.0538L2.41016 54.9513C-1.19912 52.3593 0.652165 46.6612 5.0957 46.6857L46.4141 46.9132C48.8456 46.9266 51.0045 45.3588 51.7432 43.0421L64.2949 3.67493Z"
      stroke="#8A38F5"
    />
  </svg>
