<svg width="38" height="38" viewBox="0 0 38 38" fill="none" xmlns="http://www.w3.org/2000/svg">
<path fill-rule="evenodd" clip-rule="evenodd" d="M9.5 4.75C9.27965 4.75001 9.06365 4.81132 8.87616 4.92709C8.68867 5.04285 8.53709 5.2085 8.43837 5.4055L4.87587 12.5305C4.79311 12.6956 4.75001 12.8778 4.75 13.0625V20.1875C4.75 20.5024 4.87511 20.8045 5.09781 21.0272C5.32051 21.2499 5.62256 21.375 5.9375 21.375H7.125V33.25H9.5V21.375H13.0625V32.0625C13.0625 32.3774 13.1876 32.6795 13.4103 32.9022C13.633 33.1249 13.9351 33.25 14.25 33.25H29.6875C30.0024 33.25 30.3045 33.1249 30.5272 32.9022C30.7499 32.6795 30.875 32.3774 30.875 32.0625V21.375H32.0625C32.3774 21.375 32.6795 21.2499 32.9022 21.0272C33.1249 20.8045 33.25 20.5024 33.25 20.1875V13.0625C33.25 12.8778 33.2069 12.6956 33.1241 12.5305L29.5616 5.4055C29.4629 5.2085 29.3113 5.04285 29.1238 4.92709C28.9363 4.81132 28.7203 4.75001 28.5 4.75H9.5ZM15.4375 30.875V21.375H28.5V30.875H15.4375ZM14.25 14.25H11.875V19H14.25V14.25ZM17.8125 14.25H20.1875V19H17.8125V14.25ZM26.125 14.25H23.75V19H26.125V14.25Z" fill="white"/>
</svg>
